<svg xmlns="http://www.w3.org/2000/svg" width="800" height="800" version="1.1" viewBox="0 0 200 200">
  <path d="m100 114.16-82.91 82.91Q14.16 200 10.059 200q-4.297 0-7.227-2.832Q0 194.238 0 189.941q0-4.101 2.93-7.03L85.84 100 2.93 17.09Q0 14.16 0 9.96q0-2.05.781-3.905.781-1.856 2.149-3.125Q4.297 1.562 6.152.78 8.008 0 10.06 0q4.101 0 7.03 2.93L100 85.84l82.91-82.91Q185.84 0 190.04 0q2.05 0 3.808.781 1.855.781 3.222 2.149 1.368 1.367 2.149 3.222Q200 7.91 200 9.961q0 4.2-2.93 7.129L114.16 100l82.91 82.91q2.93 2.93 2.93 7.031 0 2.051-.781 3.907-.781 1.855-2.149 3.222-1.27 1.367-3.125 2.149-1.855.781-3.906.781-4.2 0-7.129-2.93z" aria-label="close"/>
</svg>
