<svg xmlns="http://www.w3.org/2000/svg" width="800" height="800" version="1.1" viewBox="0 0 200 200">
  <path d="M29.492 200q-5.86 0-11.23-2.344-5.371-2.441-9.473-6.445-4.004-4.102-6.445-9.473Q0 176.368 0 170.508V29.492q0-5.86 2.344-11.23 2.441-5.371 6.445-9.375 4.102-4.102 9.473-6.446Q23.632 0 29.492 0h141.016q5.86 0 11.23 2.441 5.371 2.344 9.375 6.446 4.102 4.004 6.446 9.375Q200 23.632 200 29.492v141.016q0 5.86-2.441 11.23-2.344 5.371-6.446 9.473-4.004 4.004-9.375 6.445-5.37 2.344-11.23 2.344Zm140.528-20.02q2.05 0 3.808-.78 1.856-.782 3.223-2.15 1.367-1.366 2.148-3.124.781-1.856.781-3.906V29.98q0-2.05-.78-3.808-.782-1.856-2.15-3.223-1.366-1.367-3.222-2.148-1.758-.781-3.808-.781H29.98q-2.05 0-3.906.78-1.758.782-3.125 2.15-1.367 1.366-2.148 3.222-.781 1.758-.781 3.808v140.04q0 2.05.78 3.906.782 1.758 2.15 3.125 1.366 1.367 3.124 2.148 1.856.781 3.906.781z" aria-label="maximize"/>
</svg>
