<svg xmlns="http://www.w3.org/2000/svg" width="800" height="800" version="1.1" viewBox="0 0 200 200">
  <path d="M179.98 59.277q0-8.105-3.222-15.234-3.223-7.227-8.79-12.5-5.468-5.371-12.792-8.398-7.227-3.125-15.235-3.125H41.7q1.563-4.493 4.395-8.204 2.832-3.71 6.543-6.347 3.71-2.637 8.105-4.004Q65.234 0 70.02 0h69.921q12.403 0 23.34 4.785 10.938 4.688 19.043 12.793 8.203 8.106 12.89 19.043Q200 47.56 200 59.961v70.02q0 4.785-1.465 9.277-1.367 4.394-4.004 8.105-2.636 3.711-6.347 6.543-3.711 2.832-8.204 4.395zM29.492 200q-5.86 0-11.23-2.344-5.371-2.441-9.473-6.445-4.004-4.102-6.445-9.473Q0 176.368 0 170.508V69.53q0-5.957 2.344-11.23 2.441-5.371 6.445-9.375 4.102-4.102 9.375-6.446 5.371-2.44 11.328-2.44H130.47q5.957 0 11.328 2.44 5.371 2.344 9.375 6.348t6.348 9.375q2.44 5.371 2.44 11.328v100.977q0 5.957-2.44 11.328-2.344 5.273-6.446 9.375-4.004 4.004-9.375 6.445Q136.426 200 130.47 200Zm100.488-20.02q2.051 0 3.81-.78 1.855-.782 3.222-2.15 1.465-1.366 2.246-3.124.781-1.856.781-3.906v-100q0-2.051-.781-3.907-.781-1.855-2.149-3.222-1.367-1.368-3.222-2.149-1.856-.781-3.907-.781h-100q-2.05 0-3.906.781-1.758.781-3.125 2.246-1.367 1.367-2.148 3.223-.781 1.758-.781 3.809v100q0 2.05.78 3.906.782 1.758 2.15 3.125 1.366 1.367 3.124 2.148 1.856.781 3.906.781z" aria-label="restore"/>
</svg>
