<svg xmlns="http://www.w3.org/2000/svg" width="800" height="520" viewBox="0 0 200 130">
  <g fill="#7f7f7f">
    <path d="M76.44 32.5q-1.37-.22-2.39-.87-1.02-.63-1.72-1.56-.67-.91-1.02-2.08-.35-1.16-.36-2.42v-3.11q-.02-2.1-1.07-3.1-1.06-1.01-3.12-1.06v-.4h-.01v-.74l.01-.42q2.05-.04 3.1-1.03 1.07-1 1.09-3.09V9.47q.01-1.26.34-2.41.33-1.17 1-2.1.68-.95 1.7-1.59 1.04-.65 2.44-.87l.29 1.18q-1.12.21-1.87.75-.76.53-1.22 1.3-.45.77-.66 1.73-.2.96-.22 2.01v3.15q-.03 1.86-.91 3.12t-2.61 1.8q1.73.54 2.6 1.81.9 1.26.92 3.1v3.12q.02 1.07.26 2.01.24.95.74 1.7.5.76 1.23 1.29.76.52 1.77.73z" aria-label="{"/>
    <path d="M2.5 74.43q1-.21 1.74-.74.76-.52 1.25-1.29.5-.75.74-1.7t.26-2v-3.12q.01-1.84.9-3.1.89-1.28 2.62-1.82-1.73-.54-2.62-1.8-.89-1.26-.9-3.12V52.6q-.02-1.05-.23-2.01-.2-.96-.66-1.73-.45-.78-1.2-1.3-.76-.54-1.86-.75l.27-1.19q1.4.23 2.43.87 1.04.65 1.71 1.6.68.92 1.01 2.1.33 1.15.33 2.4v3.15q.02 2.09 1.07 3.1 1.07.98 3.12 1.03v.42h.02l-.02.37.02.36h-.02v.4q-2.05.05-3.12 1.07-1.05 1-1.07 3.09v3.12q0 1.26-.34 2.41-.35 1.17-1.04 2.09-.68.93-1.72 1.56-1.02.64-2.4.86z" aria-label="}"/>
    <path d="m11.89 90 .6 1.05c-6 4.5-8.19 10.72-8.19 17.88 0 6 1.66 12.63 8.2 17.53l-.6 1.04c-5.1-2.75-9.4-10.02-9.4-18.6 0-10.76 5.78-16.96 9.4-18.9Zm170.71 0-.6 1.05c6.01 4.5 8.2 10.72 8.2 17.88 0 6-1.66 12.63-8.2 17.54l.6 1.03c5.09-2.74 9.4-10.01 9.4-18.6 0-10.75-5.79-16.96-9.4-18.9z" aria-label="("/>
    <path d="M194.37 102.46q0-.65.41-1.1.43-.46 1.15-.46.73 0 1.14.46.43.45.43 1.1 0 .65-.43 1.08-.41.42-1.14.42-.72 0-1.15-.42-.4-.43-.4-1.08zm2.32 14.32q0 .68-.15 1.36-.14.67-.41 1.34-.26.67-.66 1.27-.4.62-.92 1.14l-1.16-.75q1.35-1.93 1.35-4.31v-2.41h1.95z" aria-label=";"/>
  </g>
  <path d="M21.56 29.95V5h6.23q2.63.02 4.71.86 2.1.84 3.56 2.36 1.47 1.53 2.25 3.65.8 2.11.81 4.68v1.89q-.02 2.57-.8 4.7-.8 2.1-2.25 3.63-1.45 1.5-3.52 2.34-2.06.84-4.64.84zm4.27-21.63v18.33h2.08q1.74-.02 3.03-.6 1.3-.6 2.16-1.67.87-1.08 1.3-2.58.43-1.51.45-3.36v-1.92q-.02-1.8-.46-3.3-.42-1.48-1.3-2.56-.87-1.1-2.2-1.7-1.31-.62-3.1-.64zm15.51 12.19q0-2 .6-3.74.6-1.73 1.73-3 1.14-1.26 2.77-1.98 1.62-.72 3.7-.72 2.07 0 3.7.72 1.65.72 2.77 1.98 1.14 1.27 1.73 3 .6 1.73.6 3.74v.36q0 2.02-.6 3.75t-1.73 3q-1.12 1.25-2.75 1.97t-3.7.72q-2.08 0-3.72-.72-1.63-.72-2.77-1.97-1.12-1.27-1.73-3-.6-1.73-.6-3.75zm4.19.36q0 1.27.26 2.38.28 1.12.84 1.97.58.84 1.45 1.34.88.48 2.09.48 1.17 0 2.03-.48.87-.5 1.43-1.34.58-.85.84-1.97.28-1.11.28-2.38v-.36q0-1.23-.28-2.35-.26-1.11-.84-1.95-.56-.84-1.43-1.34-.86-.5-2.07-.5-1.19 0-2.07.5-.87.5-1.43 1.34-.56.84-.84 1.95-.26 1.12-.26 2.35zM34.34 65.24l1.82-16.37h3.92l-3.25 24.96H32.8l-2.78-16.6-2.75 16.6h-4.01L20 48.87h3.92l1.82 16.28 2.61-16.28h3.3zm11.96-7.39q.98-1.37 2.38-2.14 1.42-.77 3.15-.77 1.47 0 2.7.43 1.24.43 2.11 1.34.88.89 1.37 2.3.49 1.41.49 3.39v11.43h-4.18V62.36q0-1.06-.28-1.82-.27-.77-.77-1.26-.5-.5-1.21-.74-.72-.24-1.63-.24-1.37 0-2.42.56-1.05.55-1.71 1.5v13.47h-4.2V47.5h4.19zm16.96-2.57h10.1v15.15h5.62v3.4H63.26v-3.4h5.88V58.7h-5.88zm5.53-4.8q0-.96.63-1.57.63-.64 1.77-.64 1.16 0 1.79.64.65.61.65 1.57 0 .96-.65 1.6-.63.62-1.79.62-1.14 0-1.77-.62-.63-.64-.63-1.6zm14.57-2.98H93.6v22.93h5.78v3.4H83.36v-3.4h6.02V50.91h-6.02Zm28.3 26.67q-2.11 0-3.84-.69-1.74-.68-2.98-1.88-1.23-1.2-1.9-2.83-.7-1.64-.7-3.55v-.7q0-2.21.73-3.98.73-1.76 1.94-3.01 1.23-1.25 2.84-1.92 1.62-.67 3.41-.67 2.07 0 3.64.69 1.58.66 2.63 1.9 1.07 1.21 1.61 2.9.54 1.67.54 3.68v1.73h-13.13q.1 1.08.54 2 .44.93 1.14 1.62.72.66 1.67 1.06.96.38 2.1.38 1.59 0 2.92-.62 1.35-.62 2.19-1.7l2.28 2.1q-.46.66-1.18 1.3-.72.61-1.68 1.1-.96.49-2.17.78-1.2.3-2.6.3zm-.52-15.92q-.87 0-1.62.3-.76.31-1.35.91-.6.59-1.02 1.44-.4.84-.58 1.92h8.88v-.3q-.05-.83-.33-1.58-.26-.77-.79-1.37-.53-.6-1.33-.96-.79-.36-1.86-.36zm-84.85 49.89v9.56h-4.2V92.75h8.52q1.9.01 3.52.56 1.63.53 2.8 1.54 1.17 1 1.82 2.44.67 1.42.67 3.22 0 1.75-.67 3.15-.65 1.4-1.82 2.4t-2.8 1.53q-1.61.53-3.52.55zm0-3.33h4.32q1.07 0 1.9-.3.85-.33 1.44-.9.6-.56.92-1.35.31-.79.31-1.72 0-.97-.31-1.8-.32-.82-.92-1.4-.59-.6-1.43-.93-.84-.32-1.9-.34h-4.33zm28.83-6q.5 0 1.02.04.5.03.96.1.47.07.86.15.38.07.65.18l-.6 4.02q-1.93-.43-3.8-.43-2.1 0-3.4.86-1.27.86-1.89 2.38v11.59h-4.18V99.16h3.92l.2 2.9q1.15-1.52 2.72-2.37 1.6-.88 3.54-.88zm6.46 9.45q0-2 .6-3.74.6-1.73 1.73-3 1.14-1.27 2.76-1.99 1.63-.72 3.7-.72 2.08 0 3.71.72 1.65.72 2.77 2 1.14 1.26 1.73 2.99.6 1.73.6 3.74v.36q0 2.02-.6 3.75t-1.73 3q-1.12 1.25-2.75 1.97t-3.7.72q-2.08 0-3.73-.72-1.62-.72-2.76-1.97-1.12-1.27-1.74-3-.59-1.73-.59-3.75zm4.18.36q0 1.26.27 2.38.28 1.11.84 1.97.58.84 1.45 1.34.88.48 2.08.48 1.18 0 2.04-.48.87-.5 1.43-1.34.58-.86.84-1.97.28-1.12.28-2.38v-.36q0-1.24-.28-2.35-.26-1.12-.84-1.96-.56-.84-1.43-1.33-.86-.5-2.07-.5-1.2 0-2.07.5-.87.5-1.43 1.33-.56.84-.84 1.96-.27 1.11-.27 2.35zm16.29-.33q0-2.1.52-3.86.54-1.74 1.54-3 1-1.25 2.4-1.93 1.42-.69 3.17-.69 1.7 0 2.94.57 1.24.56 2.14 1.63l.17-1.85h3.8v18.04q0 1.87-.63 3.31-.63 1.46-1.77 2.45-1.12 1-2.7 1.5-1.57.54-3.46.54-.77 0-1.75-.17-.96-.16-1.94-.53-.99-.36-1.88-.96-.9-.59-1.52-1.42l2-2.46q1.06 1.24 2.29 1.77 1.24.53 2.55.53 1.06 0 1.91-.29.86-.3 1.46-.86t.9-1.4q.34-.83.34-1.9v-1.26q-.9.96-2.1 1.48-1.2.51-2.79.51-1.73 0-3.13-.7-1.4-.72-2.4-1.97t-1.54-2.97q-.52-1.73-.52-3.75zm4.2.36q0 1.25.26 2.35t.8 1.92q.55.82 1.39 1.3.86.46 2.01.46 1.46 0 2.37-.58.9-.6 1.45-1.6v-8.19q-.56-.97-1.47-1.56-.91-.58-2.31-.58-1.16 0-2.02.48-.84.48-1.4 1.32-.54.84-.82 1.96-.26 1.1-.26 2.36zm29.59-9.84q.5 0 1.01.04.5.03.96.1.48.07.86.15.39.07.65.18l-.6 4.02q-1.92-.43-3.8-.43-2.1 0-3.4.86-1.27.86-1.88 2.38v11.59h-4.19V99.16h3.92l.2 2.9q1.15-1.52 2.73-2.37 1.6-.88 3.54-.88zm16.05 19.23q-2.1 0-3.84-.68-1.73-.69-2.97-1.89-1.23-1.2-1.91-2.83-.68-1.64-.68-3.54v-.7q0-2.22.71-3.98.74-1.77 1.95-3.02 1.22-1.25 2.83-1.92 1.63-.67 3.42-.67 2.07 0 3.64.69 1.58.67 2.63 1.9 1.07 1.22 1.6 2.9.55 1.68.55 3.68v1.73H126.7q.1 1.08.54 2 .44.93 1.14 1.62.72.67 1.66 1.06.97.38 2.1.38 1.6 0 2.93-.62 1.35-.62 2.19-1.7l2.27 2.1q-.45.66-1.17 1.3-.72.62-1.68 1.11-.96.48-2.17.77-1.2.31-2.61.31zm-.5-15.92q-.88 0-1.64.3-.75.32-1.34.92-.6.58-1.02 1.44-.4.84-.58 1.92h8.88v-.31q-.05-.82-.33-1.58-.27-.77-.8-1.37-.52-.6-1.32-.96-.79-.36-1.86-.36zm24.26 10.56q0-.46-.2-.84-.19-.4-.7-.7-.49-.33-1.36-.6-.86-.28-2.2-.54-1.69-.34-3.05-.82-1.35-.48-2.33-1.15-.97-.66-1.5-1.54-.52-.89-.52-2.06 0-1.13.55-2.14.54-1.03 1.54-1.8 1.01-.77 2.45-1.21 1.45-.47 3.24-.47 1.89 0 3.38.47 1.5.46 2.54 1.26 1.03.8 1.57 1.87.56 1.08.56 2.32h-4.18q0-.55-.25-1.05-.24-.51-.73-.9-.5-.4-1.23-.62-.72-.24-1.66-.24-.95 0-1.65.2-.68.19-1.14.52-.45.3-.68.73-.21.43-.21.9 0 .46.16.83.17.38.63.69.45.3 1.26.56.8.24 2.08.47 1.79.3 3.2.77 1.44.46 2.44 1.13 1.02.67 1.56 1.6.54.9.54 2.14 0 1.23-.58 2.26-.57 1.03-1.64 1.78-1.07.74-2.58 1.15-1.48.4-3.34.4-2.07 0-3.64-.52-1.58-.55-2.65-1.42-1.06-.88-1.62-2-.55-1.1-.55-2.25h4.07q.05.85.45 1.45t1.03.98q.63.36 1.4.53.77.15 1.56.15 1.95 0 2.96-.63 1.02-.65 1.02-1.66zm20.24 0q0-.46-.2-.84-.19-.4-.7-.7-.49-.33-1.36-.6-.86-.28-2.21-.54-1.68-.34-3.05-.82-1.34-.48-2.32-1.15-.97-.66-1.5-1.54-.52-.89-.52-2.06 0-1.13.54-2.14.55-1.03 1.55-1.8 1.01-.77 2.45-1.21 1.45-.47 3.24-.47 1.89 0 3.37.47 1.51.46 2.54 1.26 1.04.8 1.58 1.87.56 1.08.56 2.32h-4.18q0-.55-.25-1.05-.25-.51-.74-.9-.49-.4-1.22-.62-.72-.24-1.66-.24-.95 0-1.65.2-.68.19-1.14.52-.45.3-.68.73-.21.43-.21.9 0 .46.16.83.17.38.63.69.45.3 1.26.56.8.24 2.08.47 1.79.3 3.2.77 1.44.46 2.44 1.13 1.01.67 1.56 1.6.54.9.54 2.14 0 1.23-.58 2.26-.58 1.03-1.64 1.78-1.07.74-2.58 1.15-1.49.4-3.34.4-2.07 0-3.64-.52-1.58-.55-2.65-1.42-1.07-.88-1.63-2-.54-1.1-.54-2.25h4.06q.06.85.46 1.45t1.03.98q.63.36 1.4.53.77.15 1.56.15 1.94 0 2.96-.63 1.02-.65 1.02-1.66z" aria-label="Do While Progress"/>
</svg>
