<svg xmlns="http://www.w3.org/2000/svg" xml:space="preserve" width="800" height="800" viewBox="0 0 200 200">
  <path stroke="#000" stroke-width="4.14" d="M69.28 157.15q3.41-.56 5.96-2.17 2.54-1.56 4.26-3.88 1.69-2.27 2.55-5.18.86-2.87.9-6v-7.76q.04-5.22 2.66-7.72t7.75-2.61v-1.01h.03v-1.83l-.03-1.04q-5.1-.11-7.72-2.58-2.65-2.5-2.7-7.68v-7.83q-.03-3.13-.85-6-.83-2.91-2.47-5.23-1.69-2.35-4.23-3.95-2.59-1.6-6.07-2.16l-.71 2.94q2.77.53 4.64 1.87 1.87 1.3 3.04 3.24 1.12 1.9 1.64 4.3.49 2.38.53 4.99v7.83q.07 4.63 2.28 7.76 2.17 3.13 6.48 4.47-4.3 1.35-6.48 4.52-2.2 3.13-2.28 7.72v7.76q-.04 2.64-.64 5-.6 2.34-1.83 4.2-1.24 1.91-3.07 3.21-1.88 1.31-4.38 1.83zm61.44-39.67q-3.41-.56-5.96-2.16-2.54-1.57-4.26-3.88-1.69-2.28-2.55-5.19-.86-2.87-.9-6v-7.76q-.04-5.22-2.66-7.72t-7.75-2.61v-1h-.03v-1.83l.03-1.05q5.1-.11 7.72-2.57 2.65-2.5 2.7-7.68v-7.84q.03-3.13.85-6 .83-2.91 2.47-5.22 1.69-2.35 4.23-3.96 2.59-1.6 6.07-2.16l.71 2.95q-2.77.52-4.64 1.86-1.87 1.3-3.04 3.25-1.12 1.9-1.64 4.29-.49 2.38-.53 5v7.83q-.07 4.62-2.28 7.75-2.17 3.14-6.48 4.48 4.3 1.34 6.48 4.51 2.2 3.13 2.28 7.72v7.76q.04 2.65.64 5t1.83 4.21q1.24 1.9 3.07 3.2 1.88 1.31 4.38 1.84z" aria-label="{" paint-order="stroke fill markers"/>
  <path fill-rule="evenodd" d="m19.38 100 24.95 17.69 1.86 13.47-24.95-17.67-19.39 22.77-1.84-13.48L19.39 100z" color="#000"/>
  <path d="M11.12 125.16s-.07-.36 0 0a72.73 72.73 0 0 0 7.77 22.05 85.31 85.31 0 0 0 21.48 25.56 92.96 92.96 0 0 0 26.9 15.14 89.8 89.8 0 0 0 26.15 5.23l-.19-.02c9.17.67 17.34-.3 23.85-1.65A92.13 92.13 0 0 0 140.8 183c10.11-5.29 23.14-14.6 31.55-29.6l-.02.02a76.94 76.94 0 0 0 6.72-16.84c1.45-5.45 2-9.98 2.2-12.56a78.5 78.5 0 0 1-3.39 12.25 70.14 70.14 0 0 1-8.19 15.79l-.01.02c-8.64 14.05-21.52 22.36-31.32 26.68l-1.08.47a75.67 75.67 0 0 1-21.46 5.56c-6.08.65-13.34.65-21.18-.82l-.19-.02a72.7 72.7 0 0 1-21.75-6.78A74.43 74.43 0 0 1 52 162.08a65.46 65.46 0 0 1-14.24-22.21 54.03 54.03 0 0 1-3.49-16.99c-.01-.26 0 0 0 0l-1.25-10.56-23.14 2.28z"/>
  <path fill-rule="evenodd" d="m180.62 100-24.95-17.7-1.86-13.47 24.95 17.67 19.39-22.77 1.84 13.48L180.61 100z" color="#000"/>
  <path d="M188.88 74.84s.07.36 0 0a72.73 72.73 0 0 0-7.77-22.05 85.31 85.31 0 0 0-21.48-25.56 92.96 92.96 0 0 0-26.9-15.14 89.8 89.8 0 0 0-26.15-5.23l.19.02c-9.17-.67-17.34.3-23.85 1.65A92.13 92.13 0 0 0 59.2 17c-10.1 5.29-23.14 14.6-31.55 29.6l.02-.02a76.94 76.94 0 0 0-6.72 16.84c-1.45 5.45-2 9.98-2.2 12.56a78.5 78.5 0 0 1 3.39-12.25 70.14 70.14 0 0 1 8.19-15.79l.01-.02c8.64-14.05 21.52-22.36 31.32-26.68l1.08-.47a75.67 75.67 0 0 1 21.46-5.56 73.31 73.31 0 0 1 21.18.82l.19.02c6.62.96 14.09 3 21.75 6.78A74.43 74.43 0 0 1 148 37.92a65.46 65.46 0 0 1 14.24 22.21 54.03 54.03 0 0 1 3.49 16.99c.01.26 0 0 0 0l1.25 10.56 23.14-2.28z"/>
</svg>
